<?xml version="1.0" standalone="no"?><!DOCTYPE svg PUBLIC "-//W3C//DTD SVG 1.1//EN" "http://www.w3.org/Graphics/SVG/1.1/DTD/svg11.dtd"><svg class="icon" width="200px" height="200.00px" viewBox="0 0 1024 1024" version="1.1" xmlns="http://www.w3.org/2000/svg"><path fill="#333333" d="M701.8 124h-359c-76.8 0-142.2 56.3-153.2 132.2l-40.1 266.2c-9.5 62.5 39.1 118.8 102.1 118.8h117.8s-17.7 57.7-26.2 155.5c-4.3 49.6 30.5 96.9 82.1 102.1 3.3-0.5 6.2 0 9.5 0 42 0 78.2-28.6 86.4-69.2 0 0 12.4-63.5 19.1-86.4 10.5-37.7 48.2-79.2 75.4-92.6 15.3-7.5 61.8-9.4 86.1-9.9V124zM820.4 124h-68.5v516.7h68.5c28.6 0 51.5-22.9 51.5-51.5V175.5c0-28.6-22.9-51.5-51.5-51.5z" /></svg>