<?xml version="1.0" standalone="no"?><!DOCTYPE svg PUBLIC "-//W3C//DTD SVG 1.1//EN" "http://www.w3.org/Graphics/SVG/1.1/DTD/svg11.dtd"><svg class="icon" width="200px" height="200.00px" viewBox="0 0 1024 1024" version="1.1" xmlns="http://www.w3.org/2000/svg"><path fill="#333333" d="M831.04 654.016h-195.136c12.32 34.336 20.48 71.648 23.36 107.744 4.512 56.128-4.128 106.016-24.96 144.224-25.632 46.976-69.28 76.288-126.24 84.768-25.792 3.84-48-1.12-65.92-14.752-36.352-27.52-43.008-79.872-50.72-140.48-6.176-48.48-13.152-103.424-36.672-142.784-15.68-26.272-46.208-61.184-129.92-61.184h-87.36A105.6 105.6 0 0 1 32 526.08V127.424A105.6 105.6 0 0 1 137.504 21.952h605.952c28.992 0 57.44 9.92 80.128 27.904a129.28 129.28 0 0 1 45.44 71.648l87.552 374.24a128.192 128.192 0 0 1-24.512 109.44 128.256 128.256 0 0 1-101.056 48.832zM102.272 127.424V526.08a35.2 35.2 0 0 0 35.2 35.168h74.08V92.32H137.504a35.2 35.2 0 0 0-35.2 35.104z m698.24 10.112a58.368 58.368 0 0 0-57.088-45.216H281.92v474.016c59.392 11.328 104.064 41.6 133.216 90.4 31.04 51.968 38.976 114.624 46.048 169.92 3.168 24.96 6.176 48.576 10.944 66.656 5.12 19.424 10.432 25.12 12.48 26.656 2.304 1.792 6.72 2.176 13.12 1.248 35.296-5.248 59.776-21.248 74.88-48.896 30.944-56.736 17.28-152.512-12.256-217.76a50.016 50.016 0 0 1 45.696-70.848h224.96c18.016 0 34.752-8.096 45.952-22.208a58.24 58.24 0 0 0 11.136-49.696L800.544 137.536z"  /></svg>