<?xml version="1.0" standalone="no"?><!DOCTYPE svg PUBLIC "-//W3C//DTD SVG 1.1//EN" "http://www.w3.org/Graphics/SVG/1.1/DTD/svg11.dtd"><svg t="1588581572375" class="icon" viewBox="0 0 1024 1024" version="1.1" xmlns="http://www.w3.org/2000/svg" p-id="39977" xmlns:xlink="http://www.w3.org/1999/xlink" width="200" height="200"><defs><style type="text/css"></style></defs><path d="M960 64H64c-38.4 0-64 25.6-64 64v768c0 38.4 25.6 64 64 64h896c38.4 0 64-25.6 64-64V128c0-38.4-25.6-64-64-64z m0 729.6l-230.4-211.2c-6.4-6.4-19.2-12.8-32-12.8s-19.2 6.4-32 12.8l-38.4 32c-12.8 0-19.2 6.4-32 6.4-6.4 0-19.2 0-25.6-6.4-6.4 0-6.4-6.4-12.8-6.4l-128-121.6c-6.4-12.8-19.2-19.2-32-19.2s-32 6.4-38.4 19.2L64 787.2V160c0-19.2 12.8-32 32-32h832c19.2 0 32 12.8 32 32v633.6z m-217.6-531.2c-44.8 0-83.2 38.4-83.2 89.6 0 44.8 38.4 83.2 83.2 89.6 32 0 57.6-12.8 76.8-44.8 12.8-25.6 12.8-57.6 0-89.6-19.2-32-51.2-51.2-76.8-44.8z" p-id="39978"></path></svg>