<?xml version="1.0" standalone="no"?><!DOCTYPE svg PUBLIC "-//W3C//DTD SVG 1.1//EN" "http://www.w3.org/Graphics/SVG/1.1/DTD/svg11.dtd"><svg class="icon" width="200px" height="200.00px" viewBox="0 0 1024 1024" version="1.1" xmlns="http://www.w3.org/2000/svg"><path fill="#333333" d="M133.12 594.432c20.48 26.112 51.712 40.96 84.992 40.96h189.44c-10.24 28.672-17.408 60.416-19.456 90.624-3.584 47.104 3.584 89.088 20.992 121.344 21.504 39.424 58.368 64 105.984 71.168 21.504 3.072 40.448-1.024 55.296-12.288 30.72-23.04 35.84-67.072 42.496-117.76 5.12-40.448 11.264-87.04 30.72-119.808 13.312-22.016 38.912-51.2 109.056-51.2h73.216c48.64 0 88.576-39.936 88.576-88.576V193.536c0-48.64-39.936-88.576-88.576-88.576H291.328c-24.576 0-48.128 8.192-67.072 23.552-18.944 15.36-32.768 36.352-38.4 59.904L112.64 502.784c-7.68 32.256 0 65.536 20.48 91.648z m722.432-400.896v334.848c0 16.384-13.312 29.696-29.696 29.696h-62.464V163.84h62.464c16.384 0 29.696 13.312 29.696 29.696z m-685.568 322.56l73.728-314.368c5.12-22.528 25.088-37.888 48.128-37.888h413.184v397.824c-49.664 9.728-87.552 34.816-111.616 75.776-26.112 43.52-32.768 96.256-38.912 142.848-2.56 20.992-5.12 40.96-9.216 55.808-4.096 16.384-8.704 20.992-10.24 22.528-2.048 1.536-5.632 2.048-11.264 1.024-29.696-4.608-50.176-17.92-62.976-40.96-26.112-47.616-14.336-128 10.24-182.784 6.144-13.312 4.608-28.16-3.072-40.448-7.68-12.288-20.992-19.456-35.328-19.456H218.112c-15.36 0-29.184-6.656-38.4-18.432-9.728-11.776-13.312-26.624-9.728-41.472z"  /></svg>