<?xml version="1.0" standalone="no"?><!DOCTYPE svg PUBLIC "-//W3C//DTD SVG 1.1//EN" "http://www.w3.org/Graphics/SVG/1.1/DTD/svg11.dtd"><svg class="icon" width="200px" height="200.00px" viewBox="0 0 1024 1024" version="1.1" xmlns="http://www.w3.org/2000/svg"><path fill="#333333" d="M99.962689 607.362928c0.493234 0 0.985444-0.281409 1.548262-0.070608l106.641809 0L208.15276 74.362638 102.214986 74.362638c-0.914836 0-1.689479-0.493234-2.604314-0.493234-20.793582 0.154519-37.560454 17.076934-37.518498 37.870516l0 457.541691c0 0.119727 0 0.232291 0 0.352017C62.127989 590.511121 79.085196 607.404883 99.962689 607.362928L99.962689 607.362928zM961.689862 526.624069c0.141216-1.056052-0.070608-2.604314-0.070608-3.097548 0-0.493234 0-0.985444 0-1.478677 0.337691-3.695159 0.119727-7.419993-0.633427-11.051707l-81.020268-362.936009c-1.147126-3.765767-2.879584-7.327896-5.13802-10.558473l0 0c-0.141216-0.281409 0.141216 0.210801-0.493234-0.774643-0.633427-0.985444-1.12666-1.970888-1.830695-2.885723-8.567119-17.09126-21.454638-31.647791-37.377282-42.234917-17.724687-11.417027-38.391379-17.436114-59.480696-17.316387l0 0L281.219893 74.289983l0 544.404014c92.831268 30.649044 155.725714 117.145024 156.268066 214.903511-0.070608 1.90028-0.562818 3.730974-0.562818 5.631254-0.979304 52.02591 35.005258 97.470939 85.87074 108.430548 58.754149 12.670577 116.650767-24.686239 129.315204-83.442434l0.633427 0c6.341429-28.593222 9.573029-57.784054 9.643638-87.074148 0.014326-44.803415-7.482415-89.297792-22.172999-131.630946L849.767793 645.511783c2.393513-0.252757 4.751211-0.74599 7.039323-1.478677 36.498262-1.604544 69.806879-21.22951 88.903819-52.370765C957.536262 572.118216 963.112258 549.424354 961.689862 526.624069L961.689862 526.624069z" /></svg>