<?xml version="1.0" standalone="no"?><!DOCTYPE svg PUBLIC "-//W3C//DTD SVG 1.1//EN" "http://www.w3.org/Graphics/SVG/1.1/DTD/svg11.dtd"><svg t="1588579269395" class="icon" viewBox="0 0 1024 1024" version="1.1" xmlns="http://www.w3.org/2000/svg" p-id="36911" xmlns:xlink="http://www.w3.org/1999/xlink" width="200" height="200"><defs><style type="text/css"></style></defs><path d="M978.365217 936.069565H45.634783c-22.26087 0-40.069565 17.808696-40.069566 40.069565s17.808696 40.069565 40.069566 40.069566h930.504347c22.26087 0 40.069565-17.808696 40.069566-40.069566s-15.582609-40.069565-37.843479-40.069565z m-710.121739-131.33913l267.130435-113.530435c4.452174-2.226087 8.904348-4.452174 11.130435-6.678261l449.669565-449.669565c31.165217-31.165217 31.165217-84.591304 0-115.756522l-89.043478-89.043478c-31.165217-31.165217-84.591304-31.165217-115.756522 0l-449.669565 447.443478c-2.226087 2.226087-6.678261 6.678261-6.678261 11.130435l-113.530435 267.130435c-6.678261 15.582609-2.226087 28.93913 6.678261 40.069565s24.486957 13.356522 40.069565 8.904348z m578.782609-716.8l89.043478 89.043478-69.008695 69.008696-89.043479-89.043479 69.008696-69.008695z m-442.991304 442.991304l316.104347-316.104348 89.043479 89.043479-316.104348 316.104347-155.826087 66.782609 66.782609-155.826087z" p-id="36912" fill="#......"></path></svg>