<?xml version="1.0" standalone="no"?><!DOCTYPE svg PUBLIC "-//W3C//DTD SVG 1.1//EN" "http://www.w3.org/Graphics/SVG/1.1/DTD/svg11.dtd"><svg class="icon" width="200px" height="200.00px" viewBox="0 0 1024 1024" version="1.1" xmlns="http://www.w3.org/2000/svg"><path fill="#333333" d="M153.6 102.4H92.16c-20.48 0-40.96 20.48-40.96 40.96v455.68c0 25.6 20.48 40.96 40.96 40.96H153.6c25.6 0 40.96-20.48 40.96-40.96V143.36c0-20.48-20.48-40.96-40.96-40.96zM972.8 547.84v-15.36l-81.92-358.4c0-5.12-5.12-10.24-5.12-10.24-10.24-15.36-20.48-30.72-40.96-46.08-20.48-10.24-30.72-15.36-51.2-15.36H296.96c-30.72 0-51.2 25.6-51.2 51.2V593.92c0 25.6 15.36 46.08 40.96 51.2 107.52 30.72 163.84 97.28 168.96 209.92v10.24c0 61.44 40.96 112.64 102.4 112.64 51.2 0 97.28-35.84 107.52-87.04 5.12-25.6 10.24-56.32 10.24-87.04 0-46.08-10.24-92.16-25.6-133.12H875.52c35.84 0 66.56-15.36 87.04-46.08 5.12-30.72 10.24-51.2 10.24-76.8z" /></svg>